<svg width="453" height="72" viewBox="0 0 453 72" fill="none" xmlns="http://www.w3.org/2000/svg">
<path d="M285.318 71.146C280.344 71.146 276.677 70.3908 274.318 68.8752C271.969 67.3647 270.51 65.5366 269.943 63.396C269.37 61.2606 269.088 58.521 269.088 55.1877L269.193 0.0834961H283.818V52.1668C283.818 54.3752 283.922 56.0314 284.13 57.1252C284.349 58.2241 284.984 59.0939 286.026 59.7293C287.068 60.3543 288.719 60.6668 290.984 60.6668C292.177 60.6668 292.995 60.6043 293.443 60.4793V70.6668C290.609 70.9845 287.901 71.146 285.318 71.146Z" fill="#F3F4F6"/>
<path d="M311.449 71.7085C305.293 71.7085 300.533 69.37 297.158 64.6877C293.793 59.995 292.116 53.7189 292.116 45.8543C292.116 37.9272 293.845 31.62 297.303 26.9377C300.762 22.245 305.538 19.896 311.637 19.896C315.856 19.896 319.1 20.8283 321.366 22.6877C323.626 24.5522 325.199 26.4168 326.074 28.2918H326.845V20.9377H341.658V70.8543H326.845V62.8335H326.074C325.126 64.8491 323.512 66.8335 321.22 68.7918C318.928 70.7397 315.668 71.7085 311.449 71.7085ZM317.033 59.9168C320.366 59.9168 322.845 58.521 324.47 55.7293C326.106 52.9272 326.928 49.5991 326.928 45.7502C326.928 41.9897 326.106 38.7033 324.47 35.896C322.845 33.0939 320.366 31.6877 317.033 31.6877C313.559 31.6877 311.022 33.0575 309.428 35.7918C307.83 38.5314 307.033 41.8231 307.033 45.6668C307.033 49.5731 307.83 52.9272 309.428 55.7293C311.022 58.521 313.559 59.9168 317.033 59.9168Z" fill="#F3F4F6"/>
<path d="M374.667 71.7083C370.511 71.7083 367.303 70.7656 365.042 68.875C362.777 66.9896 361.11 64.974 360.042 62.8333H359.292V70.8542H344.48V0H359.292V28.2917H360.042C360.928 26.4167 362.521 24.5521 364.813 22.6875C367.105 20.8281 370.36 19.8958 374.584 19.8958C380.803 19.8958 385.594 22.2292 388.959 26.8958C392.334 31.5521 394.021 37.8698 394.021 45.8542C394.021 53.7188 392.334 59.9948 388.959 64.6875C385.594 69.3698 380.834 71.7083 374.667 71.7083ZM369.209 60.1042C372.594 60.1042 375.089 58.6875 376.688 55.8542C378.297 53.0208 379.105 49.6875 379.105 45.8542C379.105 42.0208 378.297 38.7396 376.688 36C375.089 33.2656 372.594 31.8958 369.209 31.8958C365.803 31.8958 363.297 33.2813 361.688 36.0417C360.089 38.8073 359.292 42.0781 359.292 45.8542C359.292 49.6875 360.11 53.0208 361.751 55.8542C363.386 58.6875 365.876 60.1042 369.209 60.1042Z" fill="#F3F4F6"/>
<path d="M413.633 71.7085C409.425 71.7085 405.779 70.922 402.696 69.3543C399.612 67.771 397.263 65.7085 395.654 63.1668C394.055 60.6147 393.258 57.9272 393.258 55.1043V54.4377H407.508V55.0002C407.508 56.4481 408.071 57.7241 409.196 58.8335C410.331 59.9325 411.935 60.4793 414.008 60.4793C415.768 60.4793 417.185 60.0575 418.258 59.2085C419.326 58.3647 419.862 57.245 419.862 55.8543C419.862 54.5939 419.352 53.5835 418.341 52.8335C417.341 52.0835 416.091 51.5783 414.591 51.3127L409.196 50.1877C405.555 49.5627 402.196 48.1043 399.112 45.8127C396.029 43.5106 394.487 39.9689 394.487 35.1877C394.487 30.3439 396.227 26.5835 399.716 23.9168C403.216 21.2397 407.701 19.896 413.175 19.896C417.258 19.896 420.779 20.6252 423.737 22.0835C426.696 23.5314 428.925 25.4325 430.425 27.7918C431.935 30.1408 432.696 32.6408 432.696 35.2918V35.7502H418.446V35.4793C418.446 34.2189 417.972 33.0522 417.029 31.9793C416.081 30.9116 414.638 30.3752 412.696 30.3752C411.055 30.3752 409.748 30.771 408.779 31.5627C407.805 32.3439 407.321 33.4272 407.321 34.8127C407.321 37.271 409.362 38.8752 413.446 39.6252L419.3 40.9377C423.258 41.8283 426.602 43.4377 429.341 45.771C432.076 48.0939 433.446 51.3908 433.446 55.6668C433.446 58.9325 432.576 61.7814 430.841 64.2085C429.117 66.6252 426.748 68.4793 423.737 69.771C420.722 71.0627 417.352 71.7085 413.633 71.7085Z" fill="#F3F4F6"/>
<path d="M444.683 71.7083C442.35 71.7083 440.423 70.9219 438.913 69.3542C437.413 67.7708 436.663 65.849 436.663 63.5833C436.663 61.3229 437.413 59.4167 438.913 57.875C440.423 56.3333 442.35 55.5625 444.683 55.5625C447.001 55.5625 448.933 56.3333 450.475 57.875C452.017 59.4167 452.788 61.3229 452.788 63.5833C452.788 65.849 452.001 67.7708 450.433 69.3542C448.861 70.9219 446.944 71.7083 444.683 71.7083Z" fill="#F3F4F6"/>
<path d="M30.6875 19.7363C33.2552 19.7363 35.5 20.4863 37.4167 21.9863C39.3438 23.4759 40.3125 25.5384 40.3125 28.1738C40.3125 30.1738 39.7396 31.8561 38.6042 33.2155C37.4635 34.5645 36.1771 35.2363 34.75 35.2363C33.75 35.2363 32.8958 34.8822 32.1875 34.1738C31.4792 33.4551 31.125 32.5592 31.125 31.4863C31.125 30.5592 31.2969 29.8509 31.6458 29.3613C32.0052 28.8613 32.5417 28.2884 33.25 27.6322C33.901 27.0645 34.3542 26.6217 34.6042 26.2988C34.8542 25.9811 34.9792 25.5384 34.9792 24.9655C34.9792 23.8301 34.4896 22.9967 33.5208 22.4655C32.5625 21.9238 31.5469 21.653 30.4792 21.653C26.6979 21.653 23.151 23.4551 19.8333 27.0488C16.526 30.6478 13.875 34.9603 11.875 39.9863C9.875 45.0176 8.875 49.3509 8.875 52.9863C8.875 56.7676 9.79687 59.8145 11.6458 62.1322C13.5052 64.4395 15.9375 65.5905 18.9375 65.5905C21.8542 65.5905 24.6094 64.7051 27.2083 62.9238C29.8177 61.1478 32.0469 59.0436 33.8958 56.6113L35.5 57.6947C28.7344 65.8197 21.6094 69.8822 14.125 69.8822C9.70833 69.8822 6.25 68.3353 3.75 65.2363C1.25 62.127 0 58.4342 0 54.153C0 48.9603 1.47917 43.6738 4.4375 38.2988C7.39583 32.9134 11.2604 28.4759 16.0417 24.9863C20.8177 21.4863 25.6979 19.7363 30.6875 19.7363Z" fill="#F3F4F6"/>
<path d="M68.6579 19.7363C71.21 19.7363 73.6267 20.4186 75.9079 21.778C78.1996 23.127 80.0381 25.028 81.4288 27.4863C82.8142 29.9447 83.5121 32.7467 83.5121 35.8822C83.5121 42.1478 81.9079 47.8822 78.6996 53.0905C75.4913 58.2884 71.4756 62.3822 66.6579 65.3822C61.8506 68.3822 57.2725 69.8822 52.9288 69.8822C49.4392 69.8822 46.585 68.9707 44.3663 67.153C42.1579 65.3353 40.5538 63.1426 39.5538 60.5697C38.5642 58.002 38.0746 55.5801 38.0746 53.2988C38.0746 48.4551 39.5642 43.3978 42.5538 38.1322C45.5538 32.8561 49.4183 28.4759 54.1579 24.9863C58.8923 21.4863 63.7256 19.7363 68.6579 19.7363ZM46.8454 57.3613C46.8454 60.2103 47.585 62.5645 49.0746 64.4238C50.5746 66.2728 52.4965 67.1947 54.8454 67.1947C57.0642 67.1947 59.1579 66.5384 61.1163 65.2155C63.0746 63.8978 64.7256 62.1009 66.0746 59.8197C68.71 55.5436 70.8663 50.7884 72.5329 45.5488C74.21 40.3145 75.0538 35.9447 75.0538 32.4447C75.0538 25.4603 72.4183 21.9655 67.1579 21.9655C63.3767 21.9655 59.934 24.0592 56.8246 28.2363C53.7256 32.403 51.2881 37.3197 49.5121 42.9863C47.7308 48.653 46.8454 53.4447 46.8454 57.3613Z" fill="#F3F4F6"/>
<path d="M96.9865 44.528C101.471 37.127 105.992 31.1478 110.549 26.5905C115.117 22.0228 119.362 19.7363 123.278 19.7363C124.914 19.7363 126.283 20.2936 127.382 21.403C128.492 22.502 129.049 24.0853 129.049 26.153C129.049 28.0697 128.549 30.8509 127.549 34.4863L120.82 57.5697C120.179 59.8613 119.862 61.4342 119.862 62.278C119.862 62.9186 120.018 63.3822 120.341 63.6738C120.658 63.9551 120.997 64.0905 121.362 64.0905C122.205 64.0905 123.518 63.1686 125.299 61.3197C127.091 59.4759 128.304 58.0176 128.945 56.9447L130.549 58.2155C128.341 61.2884 125.862 64.002 123.112 66.3613C120.372 68.7051 117.789 69.8822 115.362 69.8822C114.221 69.8822 113.257 69.4342 112.466 68.5488C111.684 67.6478 111.299 66.4551 111.299 64.9655C111.299 63.3978 111.695 61.2936 112.487 58.653L119.757 33.0905C119.825 32.8822 119.997 32.2988 120.278 31.3405C120.57 30.3717 120.716 29.4186 120.716 28.4863C120.716 27.5697 120.466 26.8613 119.966 26.3613C119.466 25.8613 118.929 25.6113 118.362 25.6113C116.721 25.6113 114.351 27.002 111.257 29.778C108.158 32.5592 105.143 36.0488 102.216 40.2572C99.7261 43.7467 97.7157 46.9655 96.174 49.9238C94.6428 52.8822 93.2782 56.4655 92.0699 60.6738C91.1376 63.7467 90.3876 66.3822 89.8199 68.5905H81.5907L91.7365 32.9863C91.8042 32.778 92.0542 31.877 92.4865 30.278C92.9136 28.6686 93.1324 27.502 93.1324 26.778C93.1324 25.9342 92.8251 25.278 92.2157 24.8197C91.6167 24.3509 90.8199 24.1113 89.8199 24.1113C88.8199 24.1113 87.3928 24.1842 85.549 24.3197V22.403L101.903 19.7363H103.82L96.7574 44.3197L96.9865 44.528Z" fill="#F3F4F6"/>
<path d="M147.341 59.1738C151.893 53.9811 155.528 48.7467 158.237 43.4655C160.945 38.1895 162.299 34.1947 162.299 31.4863C162.299 30.4863 162.101 29.7363 161.716 29.2363C161.325 28.7363 160.7 28.2467 159.841 27.7572C158.992 27.2572 158.367 26.7572 157.966 26.2572C157.575 25.7572 157.383 25.0072 157.383 24.0072C157.383 22.7988 157.825 21.7884 158.716 20.9655C159.617 20.1478 160.706 19.7363 161.987 19.7363C163.554 19.7363 164.872 20.377 165.945 21.653C167.013 22.9342 167.549 24.4342 167.549 26.153C167.549 30.7103 165.174 36.8926 160.424 44.6947C155.685 52.502 149.367 60.8978 141.466 69.8822H139.528L139.633 62.278C139.633 52.7363 139.096 43.8978 138.028 35.7572C137.388 31.1322 136.638 28.0228 135.778 26.4238C134.929 24.8145 133.721 24.0072 132.153 24.0072C130.872 24.0072 129.872 24.1113 129.153 24.3197V22.403L142.945 19.7363C144.664 24.5176 145.81 30.3301 146.383 37.1738C146.95 44.0072 147.268 51.3405 147.341 59.1738Z" fill="#F3F4F6"/>
<path d="M194.814 19.7363C197.799 19.7363 200.304 20.4863 202.335 21.9863C204.377 23.4759 205.398 25.3978 205.398 27.7572C205.398 30.0384 204.325 32.6426 202.189 35.5697C200.049 38.4863 196.57 41.0697 191.752 43.3197C186.945 45.5592 180.835 46.778 173.419 46.9863C173.002 48.4186 172.794 50.1686 172.794 52.2363C172.794 56.5853 173.965 59.7363 176.314 61.6947C178.658 63.653 181.262 64.6322 184.127 64.6322C188.887 64.6322 193.736 62.2467 198.669 57.4655L200.044 58.7572C192.419 66.1738 185.044 69.8822 177.919 69.8822C175.002 69.8822 172.45 69.153 170.273 67.6947C168.09 66.2259 166.445 64.3145 165.335 61.9655C164.236 59.6061 163.689 57.1842 163.689 54.6947C163.689 49.7103 165.132 44.4759 168.023 38.9863C170.908 33.4863 174.757 28.903 179.564 25.2363C184.382 21.5697 189.465 19.7363 194.814 19.7363ZM174.064 44.9655C178.908 44.6061 182.835 43.7884 185.835 42.5072C188.752 41.2155 191.117 39.5592 192.939 37.528C194.757 35.502 196.054 33.5072 196.835 31.5488C197.627 29.5905 198.023 27.9655 198.023 26.6738C198.023 25.4655 197.57 24.3509 196.669 23.3197C195.778 22.278 194.512 21.7572 192.877 21.7572C190.028 21.7572 187.262 23.0801 184.585 25.7155C181.919 28.3561 179.637 31.4967 177.752 35.1322C175.861 38.7572 174.632 42.0384 174.064 44.9655Z" fill="#F3F4F6"/>
<path d="M222.181 19.7363L215.66 47.4238C216.936 44.2884 218.769 40.5436 221.16 36.1947C223.545 31.8509 226.097 28.0228 228.806 24.7155C231.514 21.3978 233.972 19.7363 236.181 19.7363C237.108 19.7363 237.931 20.0592 238.639 20.6947C239.358 21.3353 239.722 22.2936 239.722 23.5697C239.722 25.5697 239.311 27.6061 238.493 29.6738C237.67 31.7467 236.295 32.778 234.368 32.778C233.368 32.778 232.686 32.528 232.327 32.028C231.978 31.528 231.691 30.778 231.472 29.778C231.332 29.0697 231.17 28.5592 230.993 28.2363C230.827 27.9186 230.493 27.7572 229.993 27.7572C228.769 27.7572 227.056 29.6842 224.847 33.528C222.639 37.377 220.462 41.7936 218.327 46.778C216.186 51.7676 214.764 55.5072 214.056 58.0072L211.056 68.5905H203.139L211.597 34.0488C211.665 33.8405 211.873 32.9759 212.222 31.4447C212.582 29.903 212.764 28.528 212.764 27.3197C212.764 26.1842 212.441 25.4395 211.806 25.0905C211.165 24.7311 210.311 24.5488 209.243 24.5488C208.462 24.5488 207.769 24.5853 207.16 24.653C206.545 24.7259 206.066 24.7936 205.722 24.8613L206.243 22.8405L220.368 19.7363H222.181Z" fill="#F3F4F6"/>
<path d="M259.175 7.86133H261.196L257.467 20.903H264.946L264.092 24.2155H256.509L246.988 57.4655C246.123 60.3301 245.696 62.252 245.696 63.2363C245.696 64.528 246.227 65.1738 247.3 65.1738C248.227 65.1738 249.368 64.6634 250.717 63.6322C252.076 62.5905 253.342 61.4342 254.509 60.153C255.686 58.8613 256.311 58.0801 256.384 57.7988H258.425C255.644 62.2155 252.868 65.3353 250.092 67.153C247.311 68.9707 244.779 69.8822 242.488 69.8822C241.279 69.8822 240.175 69.4134 239.175 68.4863C238.175 67.5592 237.675 66.1322 237.675 64.2155C237.675 62.9238 238.102 60.6738 238.967 57.4655L248.488 24.2155H240.467L241.217 21.8613C245.425 21.153 248.863 19.5384 251.529 17.0072C254.196 14.4811 256.743 11.4342 259.175 7.86133Z" fill="#F3F4F6"/>
</svg>
