<svg width="463" height="142" viewBox="0 0 463 142" fill="none" xmlns="http://www.w3.org/2000/svg">
<mask id="mask0_6004_416" style="mask-type:luminance" maskUnits="userSpaceOnUse" x="269" y="0" width="194" height="139">
<path d="M462.667 0H269.333V138.667H462.667V0Z" fill="white"/>
</mask>
<g mask="url(#mask0_6004_416)">
<path d="M291.549 112.358C286.576 112.358 282.909 111.603 280.549 110.087C278.201 108.577 276.742 106.749 276.174 104.608C275.602 102.472 275.32 99.7329 275.32 96.3996L275.424 41.2954H290.049V93.3787C290.049 95.5871 290.154 97.2433 290.362 98.3371C290.581 99.436 291.216 100.306 292.258 100.941C293.299 101.566 294.951 101.879 297.216 101.879C298.409 101.879 299.227 101.816 299.674 101.691V111.879C296.841 112.196 294.133 112.358 291.549 112.358Z" fill="#1B1B1B"/>
<path d="M317.681 112.92C311.525 112.92 306.764 110.582 303.389 105.9C300.025 101.207 298.348 94.9308 298.348 87.0662C298.348 79.1392 300.077 72.8319 303.535 68.1496C306.993 63.4569 311.77 61.1079 317.868 61.1079C322.087 61.1079 325.332 62.0402 327.598 63.8996C329.858 65.7642 331.431 67.6287 332.306 69.5037H333.077V62.1496H347.889V112.066H333.077V104.045H332.306C331.358 106.061 329.743 108.045 327.452 110.004C325.16 111.952 321.9 112.92 317.681 112.92ZM323.264 101.129C326.598 101.129 329.077 99.7329 330.702 96.9412C332.337 94.1392 333.16 90.811 333.16 86.9621C333.16 83.2017 332.337 79.9152 330.702 77.1079C329.077 74.3058 326.598 72.8996 323.264 72.8996C319.79 72.8996 317.254 74.2694 315.66 77.0037C314.061 79.7433 313.264 83.035 313.264 86.8787C313.264 90.785 314.061 94.1392 315.66 96.9412C317.254 99.7329 319.79 101.129 323.264 101.129Z" fill="#1B1B1B"/>
<path d="M380.899 112.92C376.743 112.92 373.535 111.978 371.274 110.087C369.009 108.202 367.342 106.186 366.274 104.045H365.524V112.066H350.712V41.2122H365.524V69.5038H366.274C367.16 67.6288 368.754 65.7642 371.045 63.8997C373.337 62.0403 376.592 61.108 380.816 61.108C387.035 61.108 391.826 63.4413 395.191 68.108C398.566 72.7642 400.254 79.082 400.254 87.0663C400.254 94.9309 398.566 101.207 395.191 105.9C391.826 110.582 387.066 112.92 380.899 112.92ZM375.441 101.316C378.826 101.316 381.321 99.8997 382.92 97.0663C384.53 94.233 385.337 90.8997 385.337 87.0663C385.337 83.233 384.53 79.9517 382.92 77.2122C381.321 74.4778 378.826 73.108 375.441 73.108C372.035 73.108 369.53 74.4934 367.92 77.2538C366.321 80.0195 365.524 83.2903 365.524 87.0663C365.524 90.8997 366.342 94.233 367.983 97.0663C369.618 99.8997 372.108 101.316 375.441 101.316Z" fill="#1B1B1B"/>
<path d="M419.865 112.92C415.657 112.92 412.011 112.134 408.928 110.566C405.844 108.983 403.495 106.92 401.886 104.379C400.287 101.827 399.49 99.1392 399.49 96.3162V95.6496H413.74V96.2121C413.74 97.66 414.303 98.936 415.428 100.045C416.563 101.144 418.167 101.691 420.24 101.691C422.001 101.691 423.417 101.269 424.49 100.42C425.558 99.5767 426.094 98.4569 426.094 97.0662C426.094 95.8058 425.584 94.7954 424.574 94.0454C423.574 93.2954 422.324 92.7902 420.824 92.5246L415.428 91.3996C411.787 90.7746 408.428 89.3162 405.344 87.0246C402.261 84.7225 400.719 81.1808 400.719 76.3996C400.719 71.5558 402.459 67.7954 405.949 65.1287C409.449 62.4517 413.933 61.1079 419.407 61.1079C423.49 61.1079 427.011 61.8371 429.969 63.2954C432.928 64.7433 435.157 66.6444 436.657 69.0037C438.167 71.3527 438.928 73.8527 438.928 76.5037V76.9621H424.678V76.6912C424.678 75.4308 424.204 74.2642 423.261 73.1912C422.313 72.1235 420.87 71.5871 418.928 71.5871C417.287 71.5871 415.98 71.9829 415.011 72.7746C414.037 73.5558 413.553 74.6392 413.553 76.0246C413.553 78.4829 415.594 80.0871 419.678 80.8371L425.532 82.1496C429.49 83.0402 432.834 84.6496 435.574 86.9829C438.308 89.3058 439.678 92.6027 439.678 96.8787C439.678 100.144 438.808 102.993 437.074 105.42C435.35 107.837 432.98 109.691 429.969 110.983C426.954 112.275 423.584 112.92 419.865 112.92Z" fill="#1B1B1B"/>
<path d="M450.915 112.92C448.582 112.92 446.655 112.134 445.145 110.566C443.645 108.983 442.895 107.061 442.895 104.795C442.895 102.535 443.645 100.629 445.145 99.0872C446.655 97.5455 448.582 96.7747 450.915 96.7747C453.233 96.7747 455.165 97.5455 456.707 99.0872C458.249 100.629 459.02 102.535 459.02 104.795C459.02 107.061 458.233 108.983 456.665 110.566C455.092 112.134 453.176 112.92 450.915 112.92Z" fill="#1B1B1B"/>
</g>
<mask id="mask1_6004_416" style="mask-type:luminance" maskUnits="userSpaceOnUse" x="0" y="32" width="274" height="110">
<path d="M273.333 32H0V141.333H273.333V32Z" fill="white"/>
</mask>
<g mask="url(#mask1_6004_416)">
<path d="M36.9194 60.9482C39.4871 60.9482 41.7319 61.6982 43.6486 63.1982C45.5757 64.6878 46.5444 66.7503 46.5444 69.3857C46.5444 71.3857 45.9715 73.068 44.8361 74.4274C43.6955 75.7764 42.409 76.4482 40.9819 76.4482C39.9819 76.4482 39.1278 76.0941 38.4194 75.3857C37.7111 74.667 37.3569 73.7712 37.3569 72.6982C37.3569 71.7712 37.5288 71.0628 37.8778 70.5732C38.2371 70.0732 38.7736 69.5003 39.4819 68.8441C40.133 68.2764 40.5861 67.8337 40.8361 67.5107C41.0861 67.193 41.2111 66.7503 41.2111 66.1774C41.2111 65.042 40.7215 64.2087 39.7528 63.6774C38.7944 63.1357 37.7788 62.8649 36.7111 62.8649C32.9299 62.8649 29.383 64.667 26.0653 68.2607C22.758 71.8597 20.1069 76.1722 18.1069 81.1982C16.1069 86.2295 15.1069 90.5628 15.1069 94.1982C15.1069 97.9795 16.0288 101.026 17.8778 103.344C19.7371 105.651 22.1694 106.802 25.1694 106.802C28.0861 106.802 30.8413 105.917 33.4403 104.136C36.0496 102.36 38.2788 100.256 40.1278 97.8232L41.7319 98.9066C34.9663 107.032 27.8413 111.094 20.3569 111.094C15.9403 111.094 12.4819 109.547 9.98193 106.448C7.48193 103.339 6.23193 99.6462 6.23193 95.3649C6.23193 90.1722 7.7111 84.8857 10.6694 79.5107C13.6278 74.1253 17.4923 69.6878 22.2736 66.1982C27.0496 62.6982 31.9299 60.9482 36.9194 60.9482Z" fill="#1B1B1B"/>
<path d="M74.89 60.9482C77.4421 60.9482 79.8587 61.6305 82.14 62.9899C84.4316 64.3389 86.2702 66.2399 87.6608 68.6982C89.0462 71.1566 89.7441 73.9587 89.7441 77.0941C89.7441 83.3597 88.14 89.0941 84.9316 94.3024C81.7233 99.5003 77.7077 103.594 72.89 106.594C68.0827 109.594 63.5046 111.094 59.1608 111.094C55.6712 111.094 52.8171 110.183 50.5983 108.365C48.39 106.547 46.7858 104.354 45.7858 101.782C44.7962 99.2139 44.3066 96.792 44.3066 94.5107C44.3066 89.667 45.7962 84.6097 48.7858 79.3441C51.7858 74.068 55.6504 69.6878 60.39 66.1982C65.1243 62.6982 69.9577 60.9482 74.89 60.9482ZM53.0775 98.5732C53.0775 101.422 53.8171 103.776 55.3066 105.636C56.8066 107.485 58.7285 108.407 61.0775 108.407C63.2962 108.407 65.39 107.75 67.3483 106.427C69.3066 105.11 70.9577 103.313 72.3066 101.032C74.9421 96.7555 77.0983 92.0003 78.765 86.7607C80.4421 81.5264 81.2858 77.1566 81.2858 73.6566C81.2858 66.6722 78.6504 63.1774 73.39 63.1774C69.6087 63.1774 66.166 65.2712 63.0566 69.4482C59.9577 73.6149 57.5202 78.5316 55.7441 84.1982C53.9629 89.8649 53.0775 94.6566 53.0775 98.5732Z" fill="#1B1B1B"/>
<path d="M103.219 85.7399C107.703 78.3389 112.224 72.3597 116.781 67.8024C121.349 63.2347 125.594 60.9482 129.51 60.9482C131.146 60.9482 132.515 61.5055 133.614 62.6149C134.724 63.7139 135.281 65.2972 135.281 67.3649C135.281 69.2816 134.781 72.0628 133.781 75.6982L127.052 98.7816C126.411 101.073 126.094 102.646 126.094 103.49C126.094 104.131 126.25 104.594 126.573 104.886C126.89 105.167 127.229 105.302 127.594 105.302C128.437 105.302 129.75 104.381 131.531 102.532C133.323 100.688 134.536 99.2295 135.177 98.1566L136.781 99.4274C134.573 102.5 132.094 105.214 129.344 107.573C126.604 109.917 124.021 111.094 121.594 111.094C120.453 111.094 119.489 110.646 118.698 109.761C117.917 108.86 117.531 107.667 117.531 106.177C117.531 104.61 117.927 102.506 118.719 99.8649L125.989 74.3024C126.057 74.0941 126.229 73.5107 126.51 72.5524C126.802 71.5837 126.948 70.6305 126.948 69.6982C126.948 68.7816 126.698 68.0732 126.198 67.5732C125.698 67.0732 125.161 66.8232 124.594 66.8232C122.953 66.8232 120.583 68.2139 117.489 70.9899C114.39 73.7712 111.375 77.2607 108.448 81.4691C105.958 84.9587 103.948 88.1774 102.406 91.1357C100.875 94.0941 99.5103 97.6774 98.3019 101.886C97.3696 104.959 96.6196 107.594 96.0519 109.802H87.8228L97.9686 74.1982C98.0363 73.9899 98.2863 73.0889 98.7186 71.4899C99.1457 69.8805 99.3644 68.7139 99.3644 67.9899C99.3644 67.1462 99.0571 66.4899 98.4478 66.0316C97.8488 65.5628 97.0519 65.3232 96.0519 65.3232C95.0519 65.3232 93.6248 65.3962 91.7811 65.5316V63.6149L108.135 60.9482H110.052L102.989 85.5316L103.219 85.7399Z" fill="#1B1B1B"/>
<path d="M153.573 100.386C158.125 95.193 161.76 89.9587 164.469 84.6774C167.177 79.4014 168.531 75.4066 168.531 72.6982C168.531 71.6982 168.333 70.9482 167.948 70.4482C167.557 69.9482 166.932 69.4587 166.073 68.9691C165.224 68.4691 164.599 67.9691 164.198 67.4691C163.807 66.9691 163.614 66.2191 163.614 65.2191C163.614 64.0107 164.057 63.0003 164.948 62.1774C165.849 61.3597 166.937 60.9482 168.219 60.9482C169.786 60.9482 171.104 61.5889 172.177 62.8649C173.245 64.1462 173.781 65.6462 173.781 67.3649C173.781 71.9222 171.406 78.1045 166.656 85.9066C161.917 93.7139 155.599 102.11 147.698 111.094H145.76L145.864 103.49C145.864 93.9482 145.328 85.1097 144.26 76.9691C143.62 72.3441 142.87 69.2347 142.01 67.6357C141.161 66.0264 139.953 65.2191 138.385 65.2191C137.104 65.2191 136.104 65.3232 135.385 65.5316V63.6149L149.177 60.9482C150.896 65.7295 152.042 71.542 152.614 78.3857C153.182 85.2191 153.5 92.5524 153.573 100.386Z" fill="#1B1B1B"/>
<path d="M201.046 60.9482C204.031 60.9482 206.536 61.6982 208.567 63.1982C210.609 64.6878 211.63 66.6097 211.63 68.9691C211.63 71.2503 210.557 73.8545 208.421 76.7816C206.281 79.6982 202.802 82.2816 197.984 84.5316C193.177 86.7712 187.067 87.9899 179.651 88.1982C179.234 89.6305 179.026 91.3805 179.026 93.4482C179.026 97.7972 180.197 100.948 182.546 102.907C184.89 104.865 187.494 105.844 190.359 105.844C195.119 105.844 199.968 103.459 204.901 98.6774L206.276 99.9691C198.651 107.386 191.276 111.094 184.151 111.094C181.234 111.094 178.682 110.365 176.505 108.907C174.322 107.438 172.677 105.526 171.567 103.177C170.468 100.818 169.921 98.3962 169.921 95.9066C169.921 90.9222 171.364 85.6878 174.255 80.1982C177.14 74.6982 180.989 70.1149 185.796 66.4482C190.614 62.7816 195.697 60.9482 201.046 60.9482ZM180.296 86.1774C185.14 85.818 189.067 85.0003 192.067 83.7191C194.984 82.4274 197.348 80.7712 199.171 78.7399C200.989 76.7139 202.286 74.7191 203.067 72.7607C203.859 70.8024 204.255 69.1774 204.255 67.8857C204.255 66.6774 203.802 65.5628 202.901 64.5316C202.01 63.4899 200.744 62.9691 199.109 62.9691C196.26 62.9691 193.494 64.292 190.817 66.9274C188.151 69.568 185.869 72.7087 183.984 76.3441C182.093 79.9691 180.864 83.2503 180.296 86.1774Z" fill="#1B1B1B"/>
<path d="M228.413 60.9482L221.892 88.6357C223.168 85.5003 225.001 81.7555 227.392 77.4066C229.777 73.0628 232.329 69.2347 235.038 65.9274C237.746 62.6097 240.204 60.9482 242.413 60.9482C243.34 60.9482 244.163 61.2712 244.871 61.9066C245.59 62.5472 245.954 63.5055 245.954 64.7816C245.954 66.7816 245.543 68.818 244.725 70.8857C243.902 72.9587 242.527 73.9899 240.6 73.9899C239.6 73.9899 238.918 73.7399 238.559 73.2399C238.21 72.7399 237.923 71.9899 237.704 70.9899C237.564 70.2816 237.402 69.7712 237.225 69.4482C237.059 69.1305 236.725 68.9691 236.225 68.9691C235.001 68.9691 233.288 70.8962 231.079 74.7399C228.871 78.5889 226.694 83.0055 224.559 87.9899C222.418 92.9795 220.996 96.7191 220.288 99.2191L217.288 109.802H209.371L217.829 75.2607C217.897 75.0524 218.105 74.1878 218.454 72.6566C218.814 71.1149 218.996 69.7399 218.996 68.5316C218.996 67.3962 218.673 66.6514 218.038 66.3024C217.397 65.943 216.543 65.7607 215.475 65.7607C214.694 65.7607 214.001 65.7972 213.392 65.8649C212.777 65.9378 212.298 66.0055 211.954 66.0732L212.475 64.0524L226.6 60.9482H228.413Z" fill="#1B1B1B"/>
<path d="M265.407 49.0732H267.428L263.699 62.1149H271.178L270.324 65.4274H262.741L253.22 98.6774C252.355 101.542 251.928 103.464 251.928 104.448C251.928 105.74 252.459 106.386 253.532 106.386C254.459 106.386 255.6 105.875 256.949 104.844C258.308 103.802 259.574 102.646 260.741 101.365C261.918 100.073 262.543 99.292 262.616 99.0107H264.657C261.876 103.427 259.1 106.547 256.324 108.365C253.543 110.183 251.011 111.094 248.72 111.094C247.511 111.094 246.407 110.625 245.407 109.698C244.407 108.771 243.907 107.344 243.907 105.427C243.907 104.136 244.334 101.886 245.199 98.6774L254.72 65.4274H246.699L247.449 63.0732C251.657 62.3649 255.095 60.7503 257.761 58.2191C260.428 55.693 262.975 52.6462 265.407 49.0732Z" fill="#1B1B1B"/>
</g>
</svg>
