<svg width="463" height="142" viewBox="0 0 463 142" fill="none" xmlns="http://www.w3.org/2000/svg">
<mask id="mask0_6004_415" style="mask-type:luminance" maskUnits="userSpaceOnUse" x="269" y="0" width="194" height="139">
<path d="M462.755 0.299072H269.421V138.966H462.755V0.299072Z" fill="white"/>
</mask>
<g mask="url(#mask0_6004_415)">
<path d="M291.637 112.657C286.663 112.657 282.997 111.902 280.637 110.386C278.288 108.876 276.83 107.048 276.262 104.907C275.689 102.772 275.408 100.032 275.408 96.6987L275.512 41.5945H290.137V93.6778C290.137 95.8862 290.242 97.5424 290.45 98.6362C290.669 99.7351 291.304 100.605 292.346 101.24C293.387 101.865 295.038 102.178 297.304 102.178C298.497 102.178 299.314 102.115 299.762 101.99V112.178C296.929 112.496 294.221 112.657 291.637 112.657Z" fill="white"/>
<path d="M317.769 113.219C311.613 113.219 306.852 110.881 303.477 106.199C300.113 101.506 298.436 95.2299 298.436 87.3653C298.436 79.4382 300.165 73.1309 303.623 68.4486C307.081 63.7559 311.857 61.407 317.956 61.407C322.175 61.407 325.42 62.3393 327.686 64.1986C329.946 66.0632 331.519 67.9278 332.394 69.8028H333.165V62.4486H347.977V112.365H333.165V104.344H332.394C331.446 106.36 329.831 108.344 327.54 110.303C325.248 112.251 321.988 113.219 317.769 113.219ZM323.352 101.428C326.686 101.428 329.165 100.032 330.79 97.2403C332.425 94.4382 333.248 91.1101 333.248 87.2611C333.248 83.5007 332.425 80.2143 330.79 77.407C329.165 74.6049 326.686 73.1986 323.352 73.1986C319.878 73.1986 317.342 74.5684 315.748 77.3028C314.149 80.0424 313.352 83.3341 313.352 87.1778C313.352 91.0841 314.149 94.4382 315.748 97.2403C317.342 100.032 319.878 101.428 323.352 101.428Z" fill="white"/>
<path d="M380.987 113.22C376.831 113.22 373.623 112.277 371.362 110.386C369.097 108.501 367.43 106.485 366.362 104.345H365.612V112.365H350.8V41.5112H365.612V69.8029H366.362C367.248 67.9279 368.841 66.0633 371.133 64.1987C373.425 62.3394 376.68 61.4071 380.904 61.4071C387.123 61.4071 391.914 63.7404 395.279 68.4071C398.654 73.0633 400.341 79.381 400.341 87.3654C400.341 95.23 398.654 101.506 395.279 106.199C391.914 110.881 387.154 113.22 380.987 113.22ZM375.529 101.615C378.914 101.615 381.409 100.199 383.008 97.3654C384.618 94.5321 385.425 91.1987 385.425 87.3654C385.425 83.5321 384.618 80.2508 383.008 77.5112C381.409 74.7769 378.914 73.4071 375.529 73.4071C372.123 73.4071 369.618 74.7925 368.008 77.5529C366.409 80.3185 365.612 83.5894 365.612 87.3654C365.612 91.1987 366.43 94.5321 368.071 97.3654C369.706 100.199 372.196 101.615 375.529 101.615Z" fill="white"/>
<path d="M419.953 113.219C415.745 113.219 412.099 112.433 409.016 110.865C405.932 109.282 403.583 107.219 401.974 104.678C400.375 102.126 399.578 99.4382 399.578 96.6153V95.9487H413.828V96.5112C413.828 97.9591 414.391 99.2351 415.516 100.344C416.651 101.443 418.255 101.99 420.328 101.99C422.089 101.99 423.505 101.568 424.578 100.719C425.646 99.8757 426.182 98.7559 426.182 97.3653C426.182 96.1049 425.672 95.0945 424.661 94.3445C423.661 93.5945 422.411 93.0893 420.911 92.8237L415.516 91.6986C411.875 91.0736 408.516 89.6153 405.432 87.3236C402.349 85.0216 400.807 81.4799 400.807 76.6986C400.807 71.8549 402.547 68.0945 406.036 65.4278C409.536 62.7507 414.021 61.407 419.495 61.407C423.578 61.407 427.099 62.1361 430.057 63.5945C433.016 65.0424 435.245 66.9434 436.745 69.3028C438.255 71.6518 439.016 74.1518 439.016 76.8028V77.2611H424.766V76.9903C424.766 75.7299 424.292 74.5632 423.349 73.4903C422.401 72.4226 420.958 71.8861 419.016 71.8861C417.375 71.8861 416.068 72.282 415.099 73.0736C414.125 73.8549 413.641 74.9382 413.641 76.3236C413.641 78.782 415.682 80.3861 419.766 81.1361L425.62 82.4486C429.578 83.3393 432.922 84.9486 435.661 87.282C438.396 89.6049 439.766 92.9018 439.766 97.1778C439.766 100.443 438.896 103.292 437.161 105.719C435.438 108.136 433.068 109.99 430.057 111.282C427.042 112.574 423.672 113.219 419.953 113.219Z" fill="white"/>
<path d="M451.003 113.22C448.67 113.22 446.743 112.433 445.232 110.865C443.732 109.282 442.982 107.36 442.982 105.095C442.982 102.834 443.732 100.928 445.232 99.3862C446.743 97.8446 448.67 97.0737 451.003 97.0737C453.321 97.0737 455.253 97.8446 456.795 99.3862C458.337 100.928 459.107 102.834 459.107 105.095C459.107 107.36 458.321 109.282 456.753 110.865C455.18 112.433 453.264 113.22 451.003 113.22Z" fill="white"/>
</g>
<mask id="mask1_6004_415" style="mask-type:luminance" maskUnits="userSpaceOnUse" x="0" y="32" width="274" height="110">
<path d="M273.421 32.2991H0.0878906V141.632H273.421V32.2991Z" fill="white"/>
</mask>
<g mask="url(#mask1_6004_415)">
<path d="M37.0073 61.2473C39.575 61.2473 41.8198 61.9973 43.7365 63.4973C45.6636 64.9869 46.6323 67.0494 46.6323 69.6848C46.6323 71.6848 46.0594 73.3671 44.924 74.7265C43.7834 76.0754 42.4969 76.7473 41.0698 76.7473C40.0698 76.7473 39.2157 76.3931 38.5073 75.6848C37.799 74.9661 37.4448 74.0702 37.4448 72.9973C37.4448 72.0702 37.6167 71.3619 37.9657 70.8723C38.325 70.3723 38.8615 69.7994 39.5698 69.1431C40.2209 68.5754 40.674 68.1327 40.924 67.8098C41.174 67.4921 41.299 67.0494 41.299 66.4765C41.299 65.3411 40.8094 64.5077 39.8407 63.9765C38.8823 63.4348 37.8667 63.164 36.799 63.164C33.0177 63.164 29.4709 64.9661 26.1532 68.5598C22.8459 72.1588 20.1948 76.4713 18.1948 81.4973C16.1948 86.5286 15.1948 90.8619 15.1948 94.4973C15.1948 98.2786 16.1167 101.325 17.9657 103.643C19.825 105.95 22.2573 107.101 25.2573 107.101C28.174 107.101 30.9292 106.216 33.5282 104.435C36.1375 102.659 38.3667 100.555 40.2157 98.1223L41.8198 99.2056C35.0542 107.331 27.9292 111.393 20.4448 111.393C16.0282 111.393 12.5698 109.846 10.0698 106.747C7.56982 103.638 6.31982 99.9452 6.31982 95.664C6.31982 90.4713 7.79899 85.1848 10.7573 79.8098C13.7157 74.4244 17.5802 69.9869 22.3615 66.4973C27.1375 62.9973 32.0177 61.2473 37.0073 61.2473Z" fill="white"/>
<path d="M74.9779 61.2473C77.5299 61.2473 79.9466 61.9296 82.2279 63.289C84.5195 64.6379 86.3581 66.539 87.7487 68.9973C89.1341 71.4556 89.832 74.2577 89.832 77.3931C89.832 83.6588 88.2279 89.3931 85.0195 94.6015C81.8112 99.7994 77.7956 103.893 72.9779 106.893C68.1706 109.893 63.5924 111.393 59.2487 111.393C55.7591 111.393 52.9049 110.482 50.6862 108.664C48.4779 106.846 46.8737 104.654 45.8737 102.081C44.8841 99.5129 44.3945 97.0911 44.3945 94.8098C44.3945 89.9661 45.8841 84.9088 48.8737 79.6431C51.8737 74.3671 55.7383 69.9869 60.4779 66.4973C65.2122 62.9973 70.0456 61.2473 74.9779 61.2473ZM53.1654 98.8723C53.1654 101.721 53.9049 104.075 55.3945 105.935C56.8945 107.784 58.8164 108.706 61.1654 108.706C63.3841 108.706 65.4779 108.049 67.4362 106.726C69.3945 105.409 71.0456 103.612 72.3945 101.331C75.0299 97.0546 77.1862 92.2994 78.8529 87.0598C80.5299 81.8254 81.3737 77.4556 81.3737 73.9556C81.3737 66.9713 78.7383 63.4765 73.4779 63.4765C69.6966 63.4765 66.2539 65.5702 63.1445 69.7473C60.0456 73.914 57.6081 78.8306 55.832 84.4973C54.0508 90.164 53.1654 94.9556 53.1654 98.8723Z" fill="white"/>
<path d="M103.306 86.039C107.791 78.6379 112.312 72.6588 116.869 68.1015C121.437 63.5338 125.681 61.2473 129.598 61.2473C131.234 61.2473 132.603 61.8046 133.702 62.914C134.812 64.0129 135.369 65.5963 135.369 67.664C135.369 69.5806 134.869 72.3619 133.869 75.9973L127.14 99.0806C126.499 101.372 126.181 102.945 126.181 103.789C126.181 104.43 126.338 104.893 126.661 105.185C126.978 105.466 127.317 105.601 127.681 105.601C128.525 105.601 129.838 104.68 131.619 102.831C133.411 100.987 134.624 99.5286 135.265 98.4556L136.869 99.7265C134.661 102.799 132.181 105.513 129.431 107.872C126.692 110.216 124.109 111.393 121.681 111.393C120.541 111.393 119.577 110.945 118.786 110.06C118.004 109.159 117.619 107.966 117.619 106.476C117.619 104.909 118.015 102.805 118.806 100.164L126.077 74.6015C126.145 74.3931 126.317 73.8098 126.598 72.8515C126.89 71.8827 127.036 70.9296 127.036 69.9973C127.036 69.0806 126.786 68.3723 126.286 67.8723C125.786 67.3723 125.249 67.1223 124.681 67.1223C123.041 67.1223 120.671 68.5129 117.577 71.289C114.478 74.0702 111.463 77.5598 108.536 81.7681C106.046 85.2577 104.036 88.4765 102.494 91.4348C100.963 94.3931 99.5981 97.9765 98.3898 102.185C97.4575 105.258 96.7075 107.893 96.1398 110.101H87.9106L98.0565 74.4973C98.1242 74.289 98.3742 73.3879 98.8065 71.789C99.2336 70.1796 99.4523 69.0129 99.4523 68.289C99.4523 67.4452 99.145 66.789 98.5356 66.3306C97.9367 65.8619 97.1398 65.6223 96.1398 65.6223C95.1398 65.6223 93.7127 65.6952 91.869 65.8306V63.914L108.223 61.2473H110.14L103.077 85.8306L103.306 86.039Z" fill="white"/>
<path d="M153.661 100.685C158.213 95.4921 161.848 90.2577 164.556 84.9765C167.265 79.7004 168.619 75.7056 168.619 72.9973C168.619 71.9973 168.421 71.2473 168.036 70.7473C167.645 70.2473 167.02 69.7577 166.161 69.2681C165.312 68.7681 164.687 68.2681 164.286 67.7681C163.895 67.2681 163.702 66.5181 163.702 65.5181C163.702 64.3098 164.145 63.2994 165.036 62.4765C165.937 61.6588 167.025 61.2473 168.306 61.2473C169.874 61.2473 171.192 61.8879 172.265 63.164C173.333 64.4452 173.869 65.9452 173.869 67.664C173.869 72.2213 171.494 78.4036 166.744 86.2056C162.004 94.0129 155.687 102.409 147.786 111.393H145.848L145.952 103.789C145.952 94.2473 145.416 85.4088 144.348 77.2681C143.708 72.6431 142.958 69.5338 142.098 67.9348C141.249 66.3254 140.041 65.5181 138.473 65.5181C137.192 65.5181 136.192 65.6223 135.473 65.8306V63.914L149.265 61.2473C150.984 66.0286 152.129 71.8411 152.702 78.6848C153.27 85.5181 153.588 92.8515 153.661 100.685Z" fill="white"/>
<path d="M201.134 61.2473C204.119 61.2473 206.624 61.9973 208.655 63.4973C210.697 64.9869 211.718 66.9088 211.718 69.2681C211.718 71.5494 210.645 74.1536 208.509 77.0806C206.369 79.9973 202.889 82.5806 198.072 84.8306C193.264 87.0702 187.155 88.289 179.738 88.4973C179.322 89.9296 179.113 91.6796 179.113 93.7473C179.113 98.0963 180.285 101.247 182.634 103.206C184.978 105.164 187.582 106.143 190.447 106.143C195.207 106.143 200.056 103.758 204.988 98.9765L206.363 100.268C198.738 107.685 191.363 111.393 184.238 111.393C181.322 111.393 178.77 110.664 176.593 109.206C174.41 107.737 172.764 105.825 171.655 103.476C170.556 101.117 170.009 98.6952 170.009 96.2056C170.009 91.2213 171.452 85.9869 174.343 80.4973C177.228 74.9973 181.077 70.414 185.884 66.7473C190.702 63.0806 195.785 61.2473 201.134 61.2473ZM180.384 86.4765C185.228 86.1171 189.155 85.2994 192.155 84.0181C195.072 82.7265 197.436 81.0702 199.259 79.039C201.077 77.0129 202.374 75.0181 203.155 73.0598C203.947 71.1015 204.343 69.4765 204.343 68.1848C204.343 66.9765 203.889 65.8619 202.988 64.8306C202.098 63.789 200.832 63.2681 199.197 63.2681C196.348 63.2681 193.582 64.5911 190.905 67.2265C188.238 69.8671 185.957 73.0077 184.072 76.6431C182.181 80.2681 180.952 83.5494 180.384 86.4765Z" fill="white"/>
<path d="M228.501 61.2473L221.98 88.9348C223.256 85.7994 225.089 82.0546 227.48 77.7056C229.865 73.3619 232.417 69.5338 235.126 66.2265C237.834 62.9088 240.292 61.2473 242.501 61.2473C243.428 61.2473 244.251 61.5702 244.959 62.2056C245.678 62.8463 246.042 63.8046 246.042 65.0806C246.042 67.0806 245.631 69.1171 244.813 71.1848C243.99 73.2577 242.615 74.289 240.688 74.289C239.688 74.289 239.006 74.039 238.646 73.539C238.298 73.039 238.011 72.289 237.792 71.289C237.652 70.5806 237.49 70.0702 237.313 69.7473C237.146 69.4296 236.813 69.2681 236.313 69.2681C235.089 69.2681 233.376 71.1952 231.167 75.039C228.959 78.8879 226.782 83.3046 224.646 88.289C222.506 93.2786 221.084 97.0181 220.376 99.5181L217.376 110.101H209.459L217.917 75.5598C217.985 75.3515 218.193 74.4869 218.542 72.9556C218.902 71.414 219.084 70.039 219.084 68.8306C219.084 67.6952 218.761 66.9504 218.126 66.6015C217.485 66.2421 216.631 66.0598 215.563 66.0598C214.782 66.0598 214.089 66.0963 213.48 66.164C212.865 66.2369 212.386 66.3046 212.042 66.3723L212.563 64.3515L226.688 61.2473H228.501Z" fill="white"/>
<path d="M265.495 49.3723H267.516L263.787 62.414H271.266L270.412 65.7265H262.828L253.308 98.9765C252.443 101.841 252.016 103.763 252.016 104.747C252.016 106.039 252.547 106.685 253.62 106.685C254.547 106.685 255.688 106.174 257.037 105.143C258.396 104.101 259.662 102.945 260.828 101.664C262.006 100.372 262.631 99.5911 262.703 99.3098H264.745C261.964 103.726 259.188 106.846 256.412 108.664C253.631 110.482 251.099 111.393 248.808 111.393C247.599 111.393 246.495 110.924 245.495 109.997C244.495 109.07 243.995 107.643 243.995 105.726C243.995 104.435 244.422 102.185 245.287 98.9765L254.808 65.7265H246.787L247.537 63.3723C251.745 62.664 255.183 61.0494 257.849 58.5181C260.516 55.9921 263.063 52.9452 265.495 49.3723Z" fill="white"/>
</g>
</svg>
